<svg width="60" height="61" viewBox="0 0 60 61" fill="none" xmlns="http://www.w3.org/2000/svg">
<rect x="-0.5" y="0.5" width="59" height="59" rx="29.5" transform="matrix(-1 0 0 1 59 0.777344)" stroke="#F77E23"/>
<path fill-rule="evenodd" clip-rule="evenodd" d="M24.0625 37.0274L33.4375 30.7774L24.0625 24.5274C23.9394 24.4453 23.8336 24.3398 23.7513 24.2168C23.669 24.0939 23.6117 23.9559 23.5826 23.8108C23.5536 23.6657 23.5535 23.5164 23.5822 23.3712C23.6109 23.2261 23.6679 23.088 23.75 22.9649C23.8321 22.8418 23.9376 22.736 24.0605 22.6537C24.1835 22.5713 24.3214 22.514 24.4665 22.485C24.6116 22.456 24.761 22.4558 24.9061 22.4846C25.0513 22.5133 25.1894 22.5703 25.3125 22.6524L35.94 29.7374C36.1112 29.8515 36.2516 30.0062 36.3486 30.1876C36.4457 30.369 36.4965 30.5716 36.4965 30.7774C36.4965 30.9831 36.4457 31.1857 36.3486 31.3671C36.2516 31.5486 36.1112 31.7032 35.94 31.8174L25.3125 38.9024C25.1894 38.9844 25.0513 39.0415 24.9061 39.0702C24.761 39.0989 24.6116 39.0987 24.4665 39.0697C24.3214 39.0407 24.1835 38.9834 24.0605 38.9011C23.9376 38.8187 23.8321 38.713 23.75 38.5899C23.6679 38.4668 23.6109 38.3287 23.5822 38.1835C23.5535 38.0384 23.5536 37.889 23.5826 37.7439C23.6117 37.5988 23.669 37.4609 23.7513 37.3379C23.8336 37.215 23.9394 37.1094 24.0625 37.0274Z" fill="#F77E23"/>
</svg>
