<svg width="60" height="61" viewBox="0 0 60 61" fill="none" xmlns="http://www.w3.org/2000/svg">
<rect y="0.0742188" width="60" height="60" rx="30" fill="#F77E23"/>
<path fill-rule="evenodd" clip-rule="evenodd" d="M35.9375 36.3242L26.5625 30.0742L35.9375 23.8242C36.0606 23.7421 36.1664 23.6366 36.2487 23.5137C36.331 23.3907 36.3883 23.2528 36.4174 23.1077C36.4464 22.9626 36.4465 22.8132 36.4178 22.6681C36.3891 22.5229 36.3321 22.3848 36.25 22.2617C36.1679 22.1386 36.0624 22.0329 35.9395 21.9505C35.8165 21.8682 35.6786 21.8109 35.5335 21.7819C35.3884 21.7528 35.239 21.7527 35.0939 21.7814C34.9487 21.8101 34.8106 21.8671 34.6875 21.9492L24.06 29.0342C23.8888 29.1484 23.7484 29.303 23.6514 29.4844C23.5543 29.6659 23.5035 29.8685 23.5035 30.0742C23.5035 30.28 23.5543 30.4826 23.6514 30.664C23.7484 30.8454 23.8888 31.0001 24.06 31.1142L34.6875 38.1992C34.8106 38.2813 34.9487 38.3383 35.0939 38.367C35.239 38.3957 35.3884 38.3956 35.5335 38.3666C35.6786 38.3376 35.8165 38.2802 35.9395 38.1979C36.0624 38.1156 36.1679 38.0098 36.25 37.8867C36.3321 37.7636 36.3891 37.6255 36.4178 37.4804C36.4465 37.3352 36.4464 37.1858 36.4174 37.0407C36.3883 36.8957 36.331 36.7577 36.2487 36.6348C36.1664 36.5118 36.0606 36.4063 35.9375 36.3242Z" fill="white"/>
</svg>
