<svg width="60" height="61" viewBox="0 0 60 61" fill="none" xmlns="http://www.w3.org/2000/svg">
<rect x="0.5" y="1.27734" width="59" height="59" rx="29.5" stroke="#F77E23"/>
<path fill-rule="evenodd" clip-rule="evenodd" d="M35.9375 37.0274L26.5625 30.7774L35.9375 24.5274C36.0606 24.4453 36.1664 24.3398 36.2487 24.2168C36.331 24.0939 36.3883 23.9559 36.4174 23.8108C36.4464 23.6657 36.4465 23.5164 36.4178 23.3712C36.3891 23.2261 36.3321 23.088 36.25 22.9649C36.1679 22.8418 36.0624 22.736 35.9395 22.6537C35.8165 22.5713 35.6786 22.514 35.5335 22.485C35.3884 22.456 35.239 22.4558 35.0939 22.4846C34.9487 22.5133 34.8106 22.5703 34.6875 22.6524L24.06 29.7374C23.8888 29.8515 23.7484 30.0062 23.6514 30.1876C23.5543 30.369 23.5035 30.5716 23.5035 30.7774C23.5035 30.9831 23.5543 31.1857 23.6514 31.3671C23.7484 31.5486 23.8888 31.7032 24.06 31.8174L34.6875 38.9024C34.8106 38.9844 34.9487 39.0415 35.0939 39.0702C35.239 39.0989 35.3884 39.0987 35.5335 39.0697C35.6786 39.0407 35.8165 38.9834 35.9395 38.9011C36.0624 38.8187 36.1679 38.713 36.25 38.5899C36.3321 38.4668 36.3891 38.3287 36.4178 38.1835C36.4465 38.0384 36.4464 37.889 36.4174 37.7439C36.3883 37.5988 36.331 37.4609 36.2487 37.3379C36.1664 37.215 36.0606 37.1094 35.9375 37.0274Z" fill="#F77E23"/>
</svg>
