<svg width="60" height="61" viewBox="0 0 60 61" fill="none" xmlns="http://www.w3.org/2000/svg">
<rect width="60" height="60" rx="30" transform="matrix(-1 0 0 1 60 0.0742188)" fill="#F77E23"/>
<path fill-rule="evenodd" clip-rule="evenodd" d="M24.0625 36.3242L33.4375 30.0742L24.0625 23.8242C23.9394 23.7421 23.8336 23.6366 23.7513 23.5137C23.669 23.3907 23.6117 23.2528 23.5826 23.1077C23.5536 22.9626 23.5535 22.8132 23.5822 22.6681C23.6109 22.5229 23.6679 22.3848 23.75 22.2617C23.8321 22.1386 23.9376 22.0329 24.0605 21.9505C24.1835 21.8682 24.3214 21.8109 24.4665 21.7819C24.6116 21.7528 24.761 21.7527 24.9061 21.7814C25.0513 21.8101 25.1894 21.8671 25.3125 21.9492L35.94 29.0342C36.1112 29.1484 36.2516 29.303 36.3486 29.4844C36.4457 29.6659 36.4965 29.8685 36.4965 30.0742C36.4965 30.28 36.4457 30.4826 36.3486 30.664C36.2516 30.8454 36.1112 31.0001 35.94 31.1142L25.3125 38.1992C25.1894 38.2813 25.0513 38.3383 24.9061 38.367C24.761 38.3957 24.6116 38.3956 24.4665 38.3666C24.3214 38.3376 24.1835 38.2802 24.0605 38.1979C23.9376 38.1156 23.8321 38.0098 23.75 37.8867C23.6679 37.7636 23.6109 37.6255 23.5822 37.4804C23.5535 37.3352 23.5536 37.1858 23.5826 37.0407C23.6117 36.8957 23.669 36.7577 23.7513 36.6348C23.8336 36.5118 23.9394 36.4063 24.0625 36.3242Z" fill="white"/>
</svg>
