<svg width="158" height="27" viewBox="0 0 158 27" fill="none" xmlns="http://www.w3.org/2000/svg">
<path fill-rule="evenodd" clip-rule="evenodd" d="M0 12.3429C0 18.3089 4.333 23.2699 10 24.2759V15.6089H7V12.2759H10V9.60888C10 6.60888 11.933 4.94288 14.667 4.94288C15.533 4.94288 16.467 5.07588 17.333 5.20888V8.27588H15.8C14.333 8.27588 14 9.00888 14 9.94288V12.2759H17.2L16.667 15.6089H14V24.2759C19.667 23.2699 24 18.3099 24 12.3429C24 5.70588 18.6 0.275879 12 0.275879C5.4 0.275879 0 5.70588 0 12.3429Z" fill="white"/>
<path fill-rule="evenodd" clip-rule="evenodd" d="M99.4171 2.34188C100.59 2.28788 100.964 2.27588 103.952 2.27588C106.94 2.27588 107.314 2.28888 108.486 2.34188C109.658 2.39488 110.458 2.58188 111.158 2.85288C111.891 3.12988 112.556 3.56288 113.106 4.12288C113.666 4.67188 114.098 5.33588 114.374 6.06988C114.646 6.76988 114.832 7.56988 114.886 8.73988C114.94 9.91488 114.952 10.2889 114.952 13.2759C114.952 16.2639 114.939 16.6379 114.886 17.8109C114.833 18.9809 114.646 19.7809 114.374 20.4809C114.098 21.215 113.665 21.8801 113.106 22.4299C112.556 22.9899 111.891 23.4219 111.158 23.6979C110.458 23.9699 109.658 24.1559 108.488 24.2099C107.314 24.2639 106.94 24.2759 103.952 24.2759C100.964 24.2759 100.59 24.2629 99.4171 24.2099C98.2471 24.1569 97.4471 23.9699 96.7471 23.6979C96.0131 23.4218 95.348 22.9891 94.7981 22.4299C94.2385 21.8805 93.8055 21.2158 93.5291 20.4819C93.2581 19.7819 93.0721 18.9819 93.0181 17.8119C92.9641 16.6369 92.9521 16.2629 92.9521 13.2759C92.9521 10.2879 92.9651 9.91388 93.0181 8.74188C93.0711 7.56988 93.2581 6.76988 93.5291 6.06988C93.8059 5.33596 94.2393 4.67119 94.7991 4.12188C95.3482 3.56238 96.0126 3.12932 96.7461 2.85288C97.4461 2.58188 98.2461 2.39588 99.4161 2.34188H99.4171ZM108.397 4.32188C107.237 4.26888 106.889 4.25788 103.952 4.25788C101.015 4.25788 100.667 4.26888 99.5071 4.32188C98.4341 4.37088 97.8521 4.54988 97.4641 4.70088C96.9511 4.90088 96.5841 5.13788 96.1991 5.52288C95.8342 5.87793 95.5533 6.31016 95.3771 6.78788C95.2261 7.17588 95.0471 7.75788 94.9981 8.83088C94.9451 9.99088 94.9341 10.3389 94.9341 13.2759C94.9341 16.2129 94.9451 16.5609 94.9981 17.7209C95.0471 18.7939 95.2261 19.3759 95.3771 19.7639C95.5531 20.2409 95.8341 20.6739 96.1991 21.0289C96.5541 21.3939 96.9871 21.6749 97.4641 21.8509C97.8521 22.0019 98.4341 22.1809 99.5071 22.2299C100.667 22.2829 101.014 22.2939 103.952 22.2939C106.89 22.2939 107.237 22.2829 108.397 22.2299C109.47 22.1809 110.052 22.0019 110.44 21.8509C110.953 21.6509 111.32 21.4139 111.705 21.0289C112.07 20.6739 112.351 20.2409 112.527 19.7639C112.678 19.3759 112.857 18.7939 112.906 17.7209C112.959 16.5609 112.97 16.2129 112.97 13.2759C112.97 10.3389 112.959 9.99088 112.906 8.83088C112.857 7.75788 112.678 7.17588 112.527 6.78788C112.327 6.27488 112.09 5.90788 111.705 5.52288C111.35 5.15795 110.918 4.87709 110.44 4.70088C110.052 4.54988 109.47 4.37088 108.397 4.32188ZM102.547 16.6669C103.332 16.9935 104.206 17.0376 105.019 16.7916C105.833 16.5456 106.536 16.0248 107.008 15.3181C107.48 14.6114 107.692 13.7627 107.608 12.917C107.524 12.0712 107.149 11.2809 106.547 10.6809C106.163 10.2974 105.699 10.0037 105.188 9.82103C104.678 9.63836 104.133 9.57124 103.593 9.62449C103.053 9.67775 102.531 9.85006 102.066 10.129C101.601 10.408 101.203 10.7866 100.901 11.2377C100.6 11.6888 100.402 12.2012 100.323 12.7378C100.243 13.2745 100.283 13.8222 100.441 14.3414C100.598 14.8606 100.869 15.3385 101.233 15.7406C101.597 16.1427 102.046 16.4591 102.547 16.6669ZM99.9541 9.27788C100.479 8.75285 101.102 8.33638 101.788 8.05224C102.474 7.7681 103.21 7.62185 103.952 7.62185C104.695 7.62185 105.43 7.7681 106.116 8.05224C106.802 8.33638 107.425 8.75285 107.95 9.27788C108.475 9.8029 108.892 10.4262 109.176 11.1122C109.46 11.7982 109.606 12.5334 109.606 13.2759C109.606 14.0184 109.46 14.7536 109.176 15.4396C108.892 16.1256 108.475 16.7489 107.95 17.2739C106.89 18.3342 105.452 18.9299 103.952 18.9299C102.453 18.9299 101.014 18.3342 99.9541 17.2739C98.8938 16.2135 98.2981 14.7754 98.2981 13.2759C98.2981 11.7763 98.8938 10.3382 99.9541 9.27788ZM110.86 8.46388C110.99 8.34115 111.094 8.19356 111.166 8.02985C111.238 7.86615 111.277 7.68965 111.28 7.51081C111.282 7.33197 111.249 7.15443 111.182 6.98869C111.114 6.82295 111.015 6.67239 110.888 6.54592C110.762 6.41945 110.611 6.31964 110.445 6.2524C110.28 6.18516 110.102 6.15185 109.923 6.15446C109.744 6.15707 109.568 6.19553 109.404 6.26758C109.24 6.33962 109.093 6.44377 108.97 6.57388C108.731 6.82691 108.601 7.163 108.606 7.51081C108.611 7.85862 108.751 8.19076 108.997 8.43672C109.243 8.68269 109.575 8.82311 109.923 8.82818C110.271 8.83325 110.607 8.70257 110.86 8.46388Z" fill="white"/>
<path fill-rule="evenodd" clip-rule="evenodd" d="M146.027 9.24488H149.565V11.0949C150.074 10.0309 151.381 9.07488 153.344 9.07488C157.106 9.07488 158 11.1929 158 15.0789V22.2759H154.19V15.9639C154.19 13.7509 153.681 12.5029 152.384 12.5029C150.585 12.5029 149.837 13.8479 149.837 15.9629V22.2759H146.027V9.24488ZM139.495 22.1059H143.305V9.07488H139.495V22.1059ZM143.85 4.82588C143.85 5.16115 143.787 5.49311 143.664 5.80247C143.541 6.11182 143.36 6.39239 143.133 6.62788C142.673 7.1085 142.049 7.37753 141.4 7.37588C140.752 7.37542 140.13 7.10708 139.668 6.62888C139.442 6.39259 139.262 6.1117 139.139 5.80231C139.016 5.49292 138.953 5.1611 138.952 4.82588C138.952 4.14888 139.209 3.50088 139.669 3.02288C140.13 2.54404 140.752 2.27558 141.401 2.27588C142.05 2.27588 142.673 2.54488 143.133 3.02288C143.592 3.50088 143.85 4.14888 143.85 4.82588Z" fill="white"/>
<path d="M58.4762 4.27588C52.6909 4.27588 48 9.20133 48 15.2759C48 21.3504 52.6909 26.2759 58.4762 26.2759C64.2615 26.2759 68.9524 21.3504 68.9524 15.2759C68.9524 9.20133 64.2615 4.27588 58.4762 4.27588ZM63.5108 12.5676C63.5179 12.683 63.5179 12.8033 63.5179 12.9212C63.5179 16.5257 60.9035 20.6777 56.1261 20.6777C54.6528 20.6777 53.2872 20.2283 52.1367 19.4549C52.3472 19.4795 52.5483 19.4893 52.7634 19.4893C53.9794 19.4893 55.0972 19.0571 55.9881 18.3254C54.8469 18.3009 53.8882 17.5152 53.5608 16.4348C53.9607 16.4962 54.3208 16.4962 54.7324 16.3857C54.1448 16.2604 53.6166 15.9253 53.2377 15.4374C52.8587 14.9495 52.6523 14.3389 52.6535 13.7094V13.675C52.9972 13.8788 53.4018 14.004 53.825 14.0212C53.4692 13.7722 53.1774 13.4349 52.9755 13.0391C52.7736 12.6434 52.6678 12.2014 52.6675 11.7524C52.6675 11.2442 52.7938 10.7801 53.0206 10.3774C53.6728 11.2205 54.4867 11.9099 55.4092 12.4011C56.3318 12.8922 57.3425 13.174 58.3756 13.2281C58.0085 11.3743 59.3274 9.87409 60.9128 9.87409C61.6611 9.87409 62.3346 10.2031 62.8093 10.7335C63.3963 10.6181 63.9575 10.3873 64.4579 10.0779C64.2638 10.7089 63.8569 11.2417 63.3168 11.5781C63.8406 11.5192 64.3457 11.367 64.8134 11.1533C64.4602 11.6984 64.0183 12.1821 63.5108 12.5676Z" fill="white"/>
</svg>
