<svg width="41" height="41" viewBox="0 0 41 41" fill="none" xmlns="http://www.w3.org/2000/svg">
<rect width="41" height="41" rx="20.5" fill="#FFE7DB"/>
<path d="M15.2285 16.4V12.8857C15.2285 12.2643 15.4754 11.6684 15.9147 11.2291C16.3541 10.7897 16.95 10.5428 17.5714 10.5428H22.2571C22.8785 10.5428 23.4744 10.7897 23.9138 11.2291C24.3531 11.6684 24.6 12.2643 24.6 12.8857V16.4H28.1143C28.7356 16.4 29.3315 16.6468 29.7709 17.0862C30.2103 17.5256 30.4571 18.1215 30.4571 18.7428V29.2857C30.4571 29.9071 30.2103 30.503 29.7709 30.9424C29.3315 31.3817 28.7356 31.6286 28.1143 31.6286H11.7143C11.0929 31.6286 10.497 31.3817 10.0576 30.9424C9.61823 30.503 9.3714 29.9071 9.3714 29.2857V18.7428C9.3714 18.1215 9.61823 17.5256 10.0576 17.0862C10.497 16.6468 11.0929 16.4 11.7143 16.4H15.2285ZM11.7143 18.7428V29.2857H28.1143V18.7428H24.5976V22.2571H22.2571V18.7428H17.5714V22.2571H15.2285V18.7428H11.7143ZM17.5714 16.4H22.2571V12.8857H17.5714V16.4Z" fill="#F77E23"/>
</svg>
