<svg width="194" height="37" viewBox="0 0 194 37" fill="none" xmlns="http://www.w3.org/2000/svg">
<g clip-path="url(#clip0_4_105)">
<path d="M17.9182 35.8365C27.8142 35.8365 35.8365 27.8142 35.8365 17.9182C35.8365 8.02227 27.8142 0 17.9182 0C8.02227 0 0 8.02227 0 17.9182C0 27.8142 8.02227 35.8365 17.9182 35.8365Z" fill="#F77D27"/>
<path fill-rule="evenodd" clip-rule="evenodd" d="M26.4856 21.7077C25.0309 24.9917 21.743 27.2827 17.92 27.2827C14.4303 27.2827 11.3864 25.3736 9.77579 22.543H13.8739V23.0054L15.9548 21.8494L13.8739 20.5777V21.2713H9.17426C8.77503 20.2305 8.55627 19.1003 8.55627 17.9189C8.55627 12.7475 12.7486 8.55518 17.92 8.55518C21.362 8.55518 24.3702 10.4123 25.9973 13.1793H22.4284V12.4857L20.3477 13.7572L22.4284 14.9132V14.4509H26.6205C26.6855 14.6139 26.7462 14.7793 26.8022 14.9467C27.9773 16.1849 30.2157 16.3644 31.8869 15.6314C32.6985 14.2996 34.1646 13.4104 35.8382 13.4104C38.3921 13.4104 40.4624 15.4807 40.4624 18.0346C40.4624 20.5883 38.3921 22.6586 35.8382 22.6586C34.2842 22.6586 32.9092 21.8919 32.0709 20.7163C29.7114 20.1153 28.2086 20.1153 26.4856 21.7077Z" fill="white"/>
<path d="M50.8207 25.4458C49.3683 25.4458 48.0516 25.1337 46.8708 24.5094C45.7034 23.8714 44.7804 22.9958 44.1017 21.8829C43.4367 20.7562 43.1041 19.4871 43.1041 18.0754C43.1041 16.6639 43.4367 15.4015 44.1017 14.2885C44.7804 13.1618 45.7034 12.2864 46.8708 11.662C48.0516 11.0241 49.3751 10.7051 50.841 10.7051C52.0762 10.7051 53.1892 10.9223 54.18 11.3566C55.1844 11.791 56.0261 12.4153 56.7048 13.2298L54.5873 15.1844C53.6235 14.0713 52.4291 13.5148 51.0038 13.5148C50.1216 13.5148 49.3344 13.7117 48.6421 14.1052C47.9498 14.4853 47.4069 15.0215 47.0132 15.7137C46.6332 16.406 46.4432 17.1932 46.4432 18.0754C46.4432 18.9578 46.6332 19.745 47.0132 20.4373C47.4069 21.1295 47.9498 21.6725 48.6421 22.0661C49.3344 22.4461 50.1216 22.6362 51.0038 22.6362C52.4291 22.6362 53.6235 22.0729 54.5873 20.9463L56.7048 22.9009C56.0261 23.7288 55.1844 24.36 54.18 24.7944C53.1756 25.2287 52.0558 25.4458 50.8207 25.4458Z" fill="#F77E23"/>
<path d="M63.3389 25.364C62.1851 25.364 61.1468 25.1265 60.2237 24.6514C59.3143 24.1628 58.6018 23.4909 58.0859 22.6358C57.5701 21.7806 57.3122 20.8101 57.3122 19.7243C57.3122 18.6384 57.5701 17.6679 58.0859 16.8127C58.6018 15.9577 59.3143 15.2925 60.2237 14.8174C61.1468 14.3288 62.1851 14.0845 63.3389 14.0845C64.4927 14.0845 65.5242 14.3288 66.4336 14.8174C67.343 15.2925 68.0556 15.9577 68.5714 16.8127C69.0872 17.6679 69.3451 18.6384 69.3451 19.7243C69.3451 20.8101 69.0872 21.7806 68.5714 22.6358C68.0556 23.4909 67.343 24.1628 66.4336 24.6514C65.5242 25.1265 64.4927 25.364 63.3389 25.364ZM63.3389 22.7579C64.1532 22.7579 64.8184 22.4864 65.3342 21.9435C65.8635 21.387 66.1282 20.6473 66.1282 19.7243C66.1282 18.8012 65.8635 18.0683 65.3342 17.5253C64.8184 16.9689 64.1532 16.6906 63.3389 16.6906C62.5244 16.6906 61.8526 16.9689 61.3232 17.5253C60.7938 18.0683 60.5291 18.8012 60.5291 19.7243C60.5291 20.6473 60.7938 21.387 61.3232 21.9435C61.8526 22.4864 62.5244 22.7579 63.3389 22.7579Z" fill="#F77E23"/>
<path d="M77.9224 14.0845C79.2798 14.0845 80.3724 14.4917 81.2004 15.3061C82.042 16.1205 82.4628 17.3285 82.4628 18.9302V25.2011H79.2866V19.4189C79.2866 18.5501 79.0965 17.9055 78.7165 17.4846C78.3364 17.0503 77.7867 16.8331 77.0673 16.8331C76.2665 16.8331 75.6285 17.0842 75.1534 17.5864C74.6783 18.075 74.4408 18.808 74.4408 19.7853V25.2011H71.2646V14.2474H74.2983V15.5301C74.719 15.0685 75.2416 14.7157 75.866 14.4714C76.4903 14.2135 77.1758 14.0845 77.9224 14.0845Z" fill="#F77E23"/>
<path d="M92.2032 24.6725C91.891 24.9032 91.5042 25.0797 91.0427 25.2018C90.5947 25.3105 90.1197 25.3647 89.6174 25.3647C88.3144 25.3647 87.3032 25.0322 86.5838 24.3671C85.878 23.702 85.525 22.7247 85.525 21.4352V16.9356H83.8351V14.4924H85.525V11.8252H88.7012V14.4924H91.4295V16.9356H88.7012V21.3945C88.7012 21.856 88.8166 22.2157 89.0474 22.4736C89.2917 22.7179 89.631 22.8401 90.0654 22.8401C90.5676 22.8401 90.9952 22.7043 91.3481 22.4329L92.2032 24.6725Z" fill="#F77E23"/>
<path d="M104.174 19.765C104.174 19.8057 104.154 20.0908 104.113 20.6202H95.8266C95.976 21.2987 96.3288 21.835 96.8853 22.2285C97.4419 22.6222 98.1341 22.8191 98.9621 22.8191C99.5322 22.8191 100.034 22.7375 100.469 22.5747C100.917 22.3982 101.331 22.1268 101.711 21.7602L103.401 23.5927C102.369 24.7736 100.862 25.364 98.8807 25.364C97.6455 25.364 96.5528 25.1265 95.6026 24.6514C94.6525 24.1628 93.9195 23.4909 93.4037 22.6358C92.888 21.7806 92.6301 20.8101 92.6301 19.7243C92.6301 18.652 92.8812 17.6883 93.3834 16.8331C93.8992 15.9644 94.5982 15.2925 95.4805 14.8174C96.3763 14.3288 97.374 14.0845 98.4735 14.0845C99.5457 14.0845 100.516 14.3152 101.385 14.7767C102.254 15.2383 102.932 15.9033 103.421 16.772C103.923 17.6271 104.174 18.6249 104.174 19.765ZM98.4938 16.487C97.7744 16.487 97.1705 16.6906 96.6818 17.0978C96.1932 17.505 95.8945 18.0615 95.7859 18.7673H101.181C101.073 18.075 100.774 17.5253 100.285 17.1181C99.7968 16.6974 99.1997 16.487 98.4938 16.487Z" fill="#F77E23"/>
<path d="M112.743 14.0845C114.1 14.0845 115.193 14.4917 116.021 15.3061C116.863 16.1205 117.283 17.3285 117.283 18.9302V25.2011H114.107V19.4189C114.107 18.5501 113.917 17.9055 113.537 17.4846C113.157 17.0503 112.607 16.8331 111.888 16.8331C111.087 16.8331 110.449 17.0842 109.974 17.5864C109.499 18.075 109.262 18.808 109.262 19.7853V25.2011H106.085V14.2474H109.119V15.5301C109.54 15.0685 110.062 14.7157 110.687 14.4714C111.311 14.2135 111.997 14.0845 112.743 14.0845Z" fill="#F77E23"/>
<path d="M127.023 24.6725C126.711 24.9032 126.325 25.0797 125.863 25.2018C125.415 25.3105 124.94 25.3647 124.438 25.3647C123.135 25.3647 122.124 25.0322 121.405 24.3671C120.699 23.702 120.346 22.7247 120.346 21.4352V16.9356H118.656V14.4924H120.346V11.8252H123.522V14.4924H126.25V16.9356H123.522V21.3945C123.522 21.856 123.638 22.2157 123.869 22.4736C124.113 22.7179 124.452 22.8401 124.886 22.8401C125.388 22.8401 125.816 22.7043 126.169 22.4329L127.023 24.6725Z" fill="#F77E23"/>
<path d="M128.603 14.2475H131.779V25.2012H128.603V14.2475ZM130.192 12.7203C129.607 12.7203 129.132 12.5508 128.766 12.2114C128.4 11.8721 128.216 11.4513 128.216 10.9491C128.216 10.4468 128.4 10.0261 128.766 9.68673C129.132 9.3474 129.607 9.17773 130.192 9.17773C130.775 9.17773 131.25 9.34061 131.616 9.66638C131.983 9.99214 132.166 10.3993 132.166 10.888C132.166 11.4174 131.983 11.8585 131.616 12.2114C131.25 12.5508 130.775 12.7203 130.192 12.7203Z" fill="#F77E23"/>
<path d="M139.735 25.364C138.582 25.364 137.544 25.1265 136.621 24.6514C135.711 24.1628 134.998 23.4909 134.483 22.6358C133.967 21.7806 133.709 20.8101 133.709 19.7243C133.709 18.6384 133.967 17.6679 134.483 16.8127C134.998 15.9577 135.711 15.2925 136.621 14.8174C137.544 14.3288 138.582 14.0845 139.735 14.0845C140.89 14.0845 141.921 14.3288 142.831 14.8174C143.74 15.2925 144.453 15.9577 144.968 16.8127C145.484 17.6679 145.742 18.6384 145.742 19.7243C145.742 20.8101 145.484 21.7806 144.968 22.6358C144.453 23.4909 143.74 24.1628 142.831 24.6514C141.921 25.1265 140.89 25.364 139.735 25.364ZM139.735 22.7579C140.551 22.7579 141.215 22.4864 141.731 21.9435C142.26 21.387 142.525 20.6473 142.525 19.7243C142.525 18.8012 142.26 18.0683 141.731 17.5253C141.215 16.9689 140.551 16.6906 139.735 16.6906C138.921 16.6906 138.249 16.9689 137.72 17.5253C137.191 18.0683 136.926 18.8012 136.926 19.7243C136.926 20.6473 137.191 21.387 137.72 21.9435C138.249 22.4864 138.921 22.7579 139.735 22.7579Z" fill="#F77E23"/>
<path d="M154.32 14.0845C155.676 14.0845 156.769 14.4917 157.598 15.3061C158.439 16.1205 158.859 17.3285 158.859 18.9302V25.2011H155.684V19.4189C155.684 18.5501 155.494 17.9055 155.114 17.4846C154.733 17.0503 154.184 16.8331 153.464 16.8331C152.663 16.8331 152.026 17.0842 151.551 17.5864C151.076 18.075 150.838 18.808 150.838 19.7853V25.2011H147.662V14.2474H150.695V15.5301C151.117 15.0685 151.638 14.7157 152.262 14.4714C152.888 14.2135 153.573 14.0845 154.32 14.0845Z" fill="#F77E23"/>
<path d="M165.954 14.0845C167.649 14.0845 168.953 14.4917 169.862 15.3061C170.772 16.1069 171.226 17.3217 171.226 18.9506V25.2011H168.254V23.8371C167.657 24.8551 166.544 25.364 164.915 25.364C164.074 25.364 163.34 25.2215 162.716 24.9364C162.106 24.6514 161.637 24.2577 161.311 23.7555C160.986 23.2533 160.823 22.6833 160.823 22.0453C160.823 21.0273 161.203 20.2265 161.963 19.6429C162.736 19.0591 163.924 18.7673 165.526 18.7673H168.05C168.05 18.075 167.841 17.5457 167.419 17.1793C166.998 16.7992 166.367 16.6091 165.526 16.6091C164.942 16.6091 164.365 16.7042 163.795 16.8941C163.239 17.0706 162.763 17.3149 162.37 17.6271L161.23 15.4078C161.827 14.9871 162.54 14.6613 163.367 14.4305C164.21 14.1999 165.071 14.0845 165.954 14.0845ZM165.709 23.2262C166.252 23.2262 166.734 23.1041 167.155 22.8598C167.575 22.6019 167.874 22.2285 168.05 21.7399V20.6202H165.872C164.569 20.6202 163.917 21.0476 163.917 21.9028C163.917 22.3101 164.074 22.6358 164.386 22.8801C164.712 23.1109 165.152 23.2262 165.709 23.2262Z" fill="#F77E23"/>
<path d="M176.932 15.693C177.311 15.1635 177.821 14.7632 178.458 14.4917C179.11 14.2203 179.857 14.0845 180.698 14.0845V17.0164C180.345 16.9892 180.107 16.9757 179.985 16.9757C179.076 16.9757 178.363 17.2335 177.848 17.7493C177.331 18.2515 177.073 19.0116 177.073 20.0296V25.2011H173.898V14.2474H176.932V15.693Z" fill="#F77E23"/>
<path d="M193.633 14.2471L188.685 25.8727C188.183 27.135 187.559 28.0241 186.813 28.5399C186.079 29.0557 185.19 29.3136 184.145 29.3136C183.576 29.3136 183.012 29.2254 182.456 29.0489C181.899 28.8724 181.444 28.6281 181.092 28.316L182.252 26.056C182.496 26.2732 182.774 26.4428 183.087 26.565C183.413 26.6871 183.731 26.7483 184.043 26.7483C184.478 26.7483 184.831 26.6396 185.102 26.4224C185.374 26.2188 185.618 25.8727 185.835 25.3841L185.876 25.2823L181.132 14.2471H184.411L187.484 21.6785L190.58 14.2471H193.633Z" fill="#F77E23"/>
</g>
<defs>
<clipPath id="clip0_4_105">
<rect width="193.633" height="37" fill="white"/>
</clipPath>
</defs>
</svg>
