<svg width="24" height="25" viewBox="0 0 24 25" fill="none" xmlns="http://www.w3.org/2000/svg">
<path d="M21.16 17.0558L19.16 15.9058L20.05 15.6658C20.1807 15.6353 20.304 15.5789 20.4124 15.4998C20.5208 15.4207 20.6122 15.3206 20.6811 15.2055C20.7501 15.0903 20.7951 14.9624 20.8136 14.8295C20.8321 14.6966 20.8236 14.5613 20.7887 14.4317C20.7538 14.3021 20.6931 14.1809 20.6104 14.0752C20.5276 13.9696 20.4244 13.8817 20.307 13.8167C20.1895 13.7518 20.0602 13.7112 19.9267 13.6972C19.7932 13.6833 19.6583 13.6964 19.53 13.7358L16.71 14.4958L14 12.9258L16.71 11.3558L19.53 12.1158H19.79C20.0552 12.1503 20.3233 12.078 20.5352 11.9148C20.7471 11.7517 20.8855 11.511 20.92 11.2458C20.9545 10.9806 20.8822 10.7125 20.719 10.5006C20.5559 10.2887 20.3152 10.1503 20.05 10.1158L19.16 9.92578L21.16 8.77578C21.2743 8.71012 21.3745 8.6226 21.4549 8.51821C21.5353 8.41383 21.5944 8.29463 21.6287 8.16741C21.6631 8.04019 21.6721 7.90746 21.6551 7.77678C21.6382 7.6461 21.5957 7.52003 21.53 7.40578C21.4643 7.29153 21.3768 7.19133 21.2724 7.11091C21.1681 7.03048 21.0489 6.9714 20.9216 6.93705C20.7944 6.90269 20.6617 6.89372 20.531 6.91066C20.4003 6.92761 20.2743 6.97012 20.16 7.03578L18 8.29578L18.3 7.18578C18.3393 7.05747 18.3524 6.92255 18.3385 6.78906C18.3246 6.65558 18.284 6.52626 18.2191 6.40881C18.1541 6.29136 18.0662 6.18818 17.9606 6.10543C17.8549 6.02267 17.7337 5.96203 17.6041 5.92712C17.4745 5.8922 17.3392 5.88373 17.2063 5.9022C17.0733 5.92068 16.9455 5.96572 16.8303 6.03465C16.7152 6.10357 16.6151 6.19497 16.536 6.3034C16.4569 6.41183 16.4005 6.53507 16.37 6.66578L15.55 9.66578L13 11.1958V8.06578L15.07 5.99578C15.2563 5.80842 15.3608 5.55497 15.3608 5.29078C15.3608 5.0266 15.2563 4.77314 15.07 4.58578C14.977 4.49205 14.8664 4.41766 14.7446 4.36689C14.6227 4.31612 14.492 4.28998 14.36 4.28998C14.228 4.28998 14.0973 4.31612 13.9754 4.36689C13.8536 4.41766 13.743 4.49205 13.65 4.58578L13 5.23578V2.92578C13 2.66056 12.8946 2.40621 12.7071 2.21867C12.5196 2.03114 12.2652 1.92578 12 1.92578C11.7348 1.92578 11.4804 2.03114 11.2929 2.21867C11.1054 2.40621 11 2.66056 11 2.92578V5.39578L10.19 4.58578C10.097 4.49205 9.98644 4.41766 9.86458 4.36689C9.74272 4.31612 9.61202 4.28998 9.48001 4.28998C9.34799 4.28998 9.21729 4.31612 9.09543 4.36689C8.97357 4.41766 8.86297 4.49205 8.77001 4.58578C8.58376 4.77314 8.47921 5.0266 8.47921 5.29078C8.47921 5.55497 8.58376 5.80842 8.77001 5.99578L11 8.22578V11.2258L8.43001 9.70578L7.61001 6.70578C7.57956 6.57507 7.5231 6.45183 7.44402 6.3434C7.36493 6.23497 7.26483 6.14357 7.14968 6.07465C7.03452 6.00572 6.90667 5.96068 6.77374 5.9422C6.64081 5.92373 6.50552 5.9322 6.37594 5.96712C6.24635 6.00203 6.12512 6.06267 6.01946 6.14543C5.91381 6.22818 5.82589 6.33136 5.76095 6.44881C5.69601 6.56626 5.65538 6.69558 5.64147 6.82906C5.62757 6.96255 5.64067 7.09747 5.68001 7.22578L6.00001 8.29578L3.84001 7.05578C3.72576 6.99012 3.59969 6.94761 3.46901 6.93066C3.33833 6.91372 3.20559 6.92269 3.07838 6.95705C2.95116 6.9914 2.83196 7.05048 2.72757 7.13091C2.62319 7.21133 2.53567 7.31153 2.47001 7.42578C2.40435 7.54003 2.36183 7.6661 2.34489 7.79678C2.32795 7.92746 2.33691 8.06019 2.37127 8.18741C2.44066 8.44434 2.60927 8.66317 2.84001 8.79578L4.84001 9.92578L4.00001 10.1858C3.73479 10.2203 3.49413 10.3587 3.33098 10.5706C3.16782 10.7825 3.09553 11.0506 3.13001 11.3158C3.16449 11.581 3.30291 11.8217 3.51482 11.9848C3.72674 12.148 3.99479 12.2203 4.26001 12.1858H4.52001L7.34001 11.4258L10 12.9258L7.29001 14.4958L4.47001 13.7358C4.33769 13.6866 4.19647 13.6661 4.05563 13.6754C3.9148 13.6848 3.77754 13.7239 3.65288 13.7901C3.52822 13.8563 3.41899 13.9481 3.33237 14.0595C3.24575 14.171 3.1837 14.2995 3.1503 14.4366C3.11691 14.5738 3.11292 14.7164 3.1386 14.8552C3.16429 14.994 3.21906 15.1258 3.29933 15.2419C3.37959 15.358 3.48352 15.4558 3.60428 15.5288C3.72505 15.6019 3.85991 15.6486 4.00001 15.6658L4.89001 15.9058L2.89001 17.0558C2.65927 17.1884 2.49066 17.4072 2.42127 17.6642C2.35188 17.9211 2.3874 18.195 2.52001 18.4258C2.65262 18.6565 2.87145 18.8251 3.12838 18.8945C3.3853 18.9639 3.65927 18.9284 3.89001 18.7958L6.00001 17.5558L5.70001 18.6658C5.66037 18.7938 5.64686 18.9285 5.66028 19.0618C5.67371 19.1951 5.71379 19.3244 5.77815 19.4419C5.84252 19.5594 5.92985 19.6628 6.03496 19.746C6.14006 19.8291 6.2608 19.8902 6.39001 19.9258C6.4764 19.9356 6.56362 19.9356 6.65001 19.9258C6.87577 19.9335 7.0975 19.8646 7.27908 19.7302C7.46067 19.5958 7.59141 19.4039 7.65001 19.1858L8.47001 16.1858L11 14.6558V17.7858L8.93001 19.8558C8.74376 20.0431 8.63921 20.2966 8.63921 20.5608C8.63921 20.825 8.74376 21.0784 8.93001 21.2658C9.02262 21.3603 9.13307 21.4354 9.25494 21.4869C9.37682 21.5384 9.5077 21.5652 9.64001 21.5658C9.77231 21.5652 9.9032 21.5384 10.0251 21.4869C10.1469 21.4354 10.2574 21.3603 10.35 21.2658L11 20.6158V22.9258C11 23.191 11.1054 23.4454 11.2929 23.6329C11.4804 23.8204 11.7348 23.9258 12 23.9258C12.2652 23.9258 12.5196 23.8204 12.7071 23.6329C12.8946 23.4454 13 23.191 13 22.9258V20.4558L13.81 21.2658C13.903 21.3595 14.0136 21.4339 14.1354 21.4847C14.2573 21.5354 14.388 21.5616 14.52 21.5616C14.652 21.5616 14.7827 21.5354 14.9046 21.4847C15.0264 21.4339 15.137 21.3595 15.23 21.2658C15.4163 21.0784 15.5208 20.825 15.5208 20.5608C15.5208 20.2966 15.4163 20.0431 15.23 19.8558L13 17.6258V14.6258L15.57 16.1158L16.39 19.1158C16.4486 19.3339 16.5793 19.5258 16.7609 19.6602C16.9425 19.7946 17.1642 19.8635 17.39 19.8558C17.4764 19.8656 17.5636 19.8656 17.65 19.8558C17.7777 19.8221 17.8974 19.7635 18.0024 19.6834C18.1073 19.6032 18.1953 19.5031 18.2613 19.3887C18.3273 19.2744 18.37 19.1481 18.3869 19.0171C18.4039 18.8862 18.3947 18.7532 18.36 18.6258L18 17.5558L20.14 18.7958C20.2543 18.8614 20.3803 18.904 20.511 18.9209C20.6417 18.9378 20.7744 18.9289 20.9016 18.8945C21.0289 18.8602 21.1481 18.8011 21.2524 18.7207C21.3568 18.6402 21.4443 18.54 21.51 18.4258C21.5757 18.3115 21.6182 18.1855 21.6351 18.0548C21.6521 17.9241 21.6431 17.7914 21.6087 17.6642C21.5744 17.5369 21.5153 17.4177 21.4349 17.3133C21.3545 17.209 21.2543 17.1214 21.14 17.0558H21.16Z" fill="#404040" fill-opacity="0.8"/>
</svg>
